<?xml version="1.0" encoding="UTF-8"?>
<svg xmlns="http://www.w3.org/2000/svg" width="436" height="137" viewBox="0 0 436 137" fill="none">
  <g clip-path="url(#clip0_1188_28879)">
    <path d="M389.65 32.2754V45.2298H397.332V99.0701H412.279V45.2298H425.587V32.2754H412.279V10.6663L397.332 -6.10352e-05V32.2754H389.65ZM322.166 136.076L336.979 125.41V95.312L338.765 96.2515C343.56 98.6833 348.782 99.7554 354.263 99.7554C373.332 99.7554 388.415 85.7178 388.415 66.5515C388.415 47.3852 373.332 32.5296 354.263 32.5296C349.187 32.5296 344.245 33.6128 339.45 35.9009C338.9 36.1661 338.484 36.3098 338.214 36.3098H322.166V136.065V136.076ZM354.263 85.4525C343.706 85.4525 336.429 76.8089 336.429 66.5515C336.429 56.2941 343.291 47.3852 354.263 47.3852C365.235 47.3852 373.602 55.7525 373.602 66.5515C373.602 77.3505 364.819 85.4525 354.263 85.4525ZM285.959 32.5407C267.171 32.5407 252.223 47.7941 252.223 66.5625C252.223 85.3309 267.451 99.7665 285.959 99.7665C294.461 99.7665 301.592 96.7932 307.218 91.1228L293.776 83.5624C291.17 84.7783 288.834 85.4525 286.509 85.4525C278.963 85.4525 272.247 80.8654 269.226 74.3882L268.406 72.6308H317.101C317.517 70.8733 317.651 68.8506 317.651 66.5515C317.651 48.0594 305.028 32.5296 285.97 32.5296M269.102 58.8584C271.708 51.1654 277.334 47.2525 285.97 47.2525C293.652 47.2525 298.728 51.8396 301.064 58.8584L301.614 60.4833H268.563L269.113 58.8584H269.102ZM229.324 32.5296C210.67 32.5296 195.442 47.7831 195.442 66.5515C195.442 85.3199 210.67 99.7554 229.324 99.7554C238.51 99.7554 246.192 96.7821 252.223 91.1118L241.801 80.5781C238.376 83.8167 234.389 85.4415 229.728 85.4415C218.891 85.4415 210.255 77.2068 210.255 66.5404C210.255 55.8741 218.756 47.2415 229.324 47.2415C234.119 47.2415 238.241 48.8663 241.666 51.9723L252.223 41.4385C245.777 35.5029 238.23 32.5296 229.324 32.5296ZM130.44 99.5233H145.197L145.253 64.6614C145.253 54.404 150.194 47.3852 161.301 47.3852C170.083 47.3852 177.215 54.404 177.215 63.1803V99.5233H191.893V63.1803C191.893 46.0367 178.585 32.5407 161.312 32.5407C156.786 32.5407 151.98 34.0218 147.735 36.0556C147.319 36.1882 146.915 36.3209 146.499 36.3209H130.451V99.5344L130.44 99.5233ZM91.2118 32.5296C72.4233 32.5296 57.4755 47.5178 57.4755 66.4078C57.4755 85.2978 72.4233 99.7554 91.2118 99.7554C110 99.7554 125.094 85.3088 125.094 66.4078C125.094 47.5068 109.866 32.5296 91.2118 32.5296ZM91.2118 85.4415C80.7899 85.4415 72.1425 76.9415 72.1425 66.4078C72.1425 55.8741 80.7787 47.2415 91.2118 47.2415C101.645 47.2415 110.416 55.7414 110.416 66.4078C110.416 77.0742 101.768 85.4415 91.2118 85.4415ZM33.8803 32.5296C15.2265 32.5296 -0.00195312 47.7831 -0.00195312 66.5515C-0.00195312 85.3199 15.2265 99.7554 33.8803 99.7554C43.0668 99.7554 50.7485 96.7821 56.7792 91.1118L46.3574 80.5781C42.9321 83.8167 38.9453 85.4415 34.2846 85.4415C23.4472 85.4415 14.811 77.2068 14.811 66.5404C14.811 55.8741 23.3125 47.2415 33.8803 47.2415C38.6757 47.2415 42.7973 48.8663 46.2226 51.9723L56.7792 41.4385C50.333 35.5029 42.7861 32.5296 33.8803 32.5296Z" fill="#121212"></path>
    <path d="M435.998 91.7308C435.998 95.7542 432.685 99.0259 428.586 99.0259C424.487 99.0259 421.174 95.7652 421.174 91.7308C421.174 87.6964 424.487 84.4357 428.586 84.4357C432.685 84.4357 435.998 87.6964 435.998 91.7308Z" fill="#121212"></path>
  </g>
  <defs>
    <clipPath id="clip0_1188_28879">
      <rect width="436" height="136.076" fill="white"></rect>
    </clipPath>
  </defs>
</svg>
