<svg width="219" height="49" viewBox="0 0 219 49" fill="none" xmlns="http://www.w3.org/2000/svg">
<path d="M6.77515 42.6758C10.4338 46.2662 15.5195 48.513 21.4326 48.6876C29.5318 48.9229 37.3197 45.2187 42.6939 39.3359C26.2147 44.4444 13.3714 45.454 6.77515 42.6758Z" fill="#1C355E"/>
<path d="M29.061 0.692057C15.6408 0.297345 3.05558 10.7269 0.945394 23.9801C0.307783 27.9955 0.710085 31.7984 1.94735 35.1762C1.98531 34.8271 2.03844 34.4627 2.12194 34.0908C3.57933 27.4034 11.7089 18.0594 23.9449 8.03977L24.2182 8.22954C23.907 8.51039 23.5654 8.81402 23.1859 9.148C14.0923 17.2092 8.17165 24.5949 6.96474 30.0905C4.5737 41.0134 21.5235 41.3019 47.4302 32.2538C48.4322 30.0981 49.1609 27.7982 49.5404 25.4147C51.643 12.1539 42.4736 1.09436 29.061 0.692057ZM28.9851 5.68668C28.7346 6.75696 27.6719 7.5312 26.594 7.42493C25.5238 7.31867 24.8558 6.36225 25.0987 5.29197C25.3492 4.22169 26.4194 3.44745 27.4897 3.55372C28.56 3.65999 29.228 4.61641 28.9851 5.68668Z" fill="#1C355E"/>
<path d="M141.192 23.2583C140.477 15.5775 134.397 9.32947 125.082 9.32947C115.648 9.32947 109.332 16.0014 108.922 23.9643C110.171 23.8728 111.826 23.7635 113.846 23.6558C114.348 17.4032 118.981 12.9629 125.082 12.9629C131.067 12.9629 135.587 17.1823 136.272 23.1869C137.863 23.2003 139.504 23.2236 141.192 23.2583Z" fill="#608D80"/>
<path d="M141.257 24.334C139.575 24.299 137.939 24.2755 136.352 24.2617C136.359 24.4374 136.362 24.6144 136.362 24.7926C136.362 31.5947 131.588 36.6646 125.082 36.6646C118.618 36.6646 113.801 31.5947 113.801 24.7926C113.801 24.773 113.801 24.7534 113.801 24.7339C111.782 24.8423 110.135 24.9518 108.902 25.0427C109.027 33.1362 115.211 40.2557 124.955 40.2557C135.179 40.2557 141.263 32.9467 141.263 24.7926C141.263 24.6393 141.261 24.4864 141.257 24.334Z" fill="#1C355E"/>
<path d="M104.738 24.3428V10.7616H100.767V24.8089C102.087 24.6435 103.411 24.4882 104.738 24.3428Z" fill="#608D80"/>
<path d="M100.767 25.8914C102.087 25.7253 103.411 25.5694 104.738 25.4234V40.2937H100.894L90.1917 27.4609C91.8492 27.1759 93.5151 26.9086 95.1887 26.6585L100.767 33.2804V25.8914Z" fill="#1C355E"/>
<path d="M94.3768 25.6947L81.7972 10.7616H75.9246V11.1841C77.9103 11.9446 77.9948 14.0993 77.9948 17.3102V28.8212C79.3261 28.5119 80.6641 28.2156 82.0084 27.9319V17.6482L89.3975 26.5085C91.0493 26.2197 92.7093 25.9486 94.3768 25.6947Z" fill="#608D80"/>
<path d="M82.0084 29.0298C80.6639 29.3151 79.3258 29.6131 77.9948 29.9241V40.2937H82.0084V29.0298Z" fill="#1C355E"/>
<path d="M70.8626 30.6214V10.7616H64.145V11.2264C66.1307 11.9446 66.2152 14.1416 66.2152 17.3102V31.9582C67.7533 31.4931 69.3026 31.0476 70.8626 30.6214Z" fill="#608D80"/>
<path d="M66.2152 33.0807C67.7529 32.6125 69.3023 32.1642 70.8626 31.7351V40.2937H66.2152V33.0807Z" fill="#1C355E"/>
<path d="M146.957 24.4859C148.636 24.539 150.266 24.5972 151.853 24.6586C152.977 27.448 154.168 30.4174 154.584 32.1618C155.068 30.4655 156.209 27.5723 157.305 24.8848C158.524 24.9381 159.72 24.9917 160.899 25.0446C161.115 25.0543 161.332 25.064 161.547 25.0737L155.133 40.1046H153.57L146.957 24.4859Z" fill="#1C355E"/>
<path d="M171.802 25.4899V28.0859C171.802 32.184 173.027 35.1415 175.097 37.2117C177.21 39.3664 180.632 40.2536 184.181 40.2536C187.687 40.2536 191.067 39.3664 193.18 37.2117C195.25 35.1415 196.518 32.184 196.518 28.0859V25.1438C194.99 25.251 193.5 25.3392 192.039 25.4105V28.0859C192.039 30.9588 191.321 33.1135 189.927 34.5077C188.617 35.8174 186.631 36.5357 184.265 36.5357C181.857 36.5357 179.871 35.8174 178.562 34.5077C177.167 33.1135 176.449 30.9588 176.449 28.0859V25.6119C174.902 25.5822 173.356 25.5405 171.802 25.4899Z" fill="#1C355E"/>
<path d="M176.449 24.538C174.902 24.5081 173.357 24.4661 171.802 24.4153V16.5942C171.802 13.3832 171.675 11.2285 169.732 10.468V10.0456H176.449V24.538Z" fill="#608D80"/>
<path d="M192.039 24.3353C193.499 24.2635 194.99 24.1748 196.518 24.0671V10.0456H192.039V24.3353Z" fill="#608D80"/>
<path d="M205.672 24.488C206.324 24.9435 207.034 25.3792 207.788 25.8066C211.886 28.088 214.168 29.44 214.168 32.3552V32.5242C214.168 34.7634 212.393 36.5378 209.098 36.5378C206.183 36.5378 203.774 35.5239 201.408 33.3269V37.9743C203.352 39.3685 205.845 40.2135 209.224 40.2135C211.633 40.2135 213.787 39.622 215.435 38.3545C217.463 36.7913 218.561 34.7634 218.646 32.1439V31.7214C218.646 28.0859 216.876 25.9524 213.592 23.7822C210.92 24.081 208.471 24.283 205.672 24.488Z" fill="#1C355E"/>
<path d="M212.117 22.8601C209.602 23.1185 207.201 23.3029 204.395 23.5033C202.496 21.8683 201.324 19.9211 201.324 17.23C201.324 12.4136 205.126 9.32947 210.534 9.32947C212.816 9.32947 215.224 9.70971 217.336 11.1039V15.4978C215.013 13.3854 212.562 13.0474 210.534 13.0474C207.577 13.0474 205.76 14.3149 205.76 16.5963V16.6808C205.76 19.1735 208.126 20.5677 210.788 22.0887C211.25 22.3507 211.693 22.607 212.117 22.8601Z" fill="#608D80"/>
<path d="M161.998 24.018C161.67 24.0033 161.34 23.9886 161.01 23.9737C159.936 23.9256 158.847 23.8767 157.74 23.8281L163.287 10.4036H167.808L161.998 24.018Z" fill="#608D80"/>
<path d="M151.409 23.5663L146.049 10.4036H139.712V10.8261C141.36 11.5866 142.416 13.7413 143.768 16.9522L146.496 23.3968C148.183 23.4486 149.818 23.5058 151.409 23.5663Z" fill="#608D80"/>
</svg>
